HIERARCHY
ROOT root
{
	OFFSET 0.00 0.00 0.00
	CHANNELS 6 Xposition Yposition Zposition Zrotation Xrotation Yrotation
	JOINT lowerback
	{
		OFFSET 0 0 0
		CHANNELS 6 Xposition Yposition Zposition Zrotation Xrotation Yrotation
		JOINT upperback
		{
			OFFSET -0.214371 12.3768 -1.12219
			CHANNELS 6 Xposition Yposition Zposition Zrotation Xrotation Yrotation
			JOINT thorax
			{
				OFFSET -0.00137213 12.3873 0.296195
				CHANNELS 6 Xposition Yposition Zposition Zrotation Xrotation Yrotation
				JOINT lowerneck
				{
					OFFSET 0.0883157 12.5016 0.82912
					CHANNELS 6 Xposition Yposition Zposition Zrotation Xrotation Yrotation
					JOINT upperneck
					{
						OFFSET -1 10.1794 0.943522
						CHANNELS 6 Xposition Yposition Zposition Zrotation Xrotation Yrotation
						JOINT head
						{
							OFFSET 0.667525 10.2797 -1.57149
							CHANNELS 6 Xposition Yposition Zposition Zrotation Xrotation Yrotation
							End Site
							{
								OFFSET 0 0 0
							}
						}
					}
				}
				JOINT lclavicle
				{
					OFFSET 0.0883157 12.5016 0.82912
					CHANNELS 6 Xposition Yposition Zposition Zrotation Xrotation Yrotation
					JOINT lhumerus
					{
						OFFSET 20.61 4.45006 1.43784
						CHANNELS 6 Xposition Yposition Zposition Zrotation Xrotation Yrotation
						JOINT lradius
						{
							OFFSET 0 -30.3438 0
							CHANNELS 6 Xposition Yposition Zposition Zrotation Xrotation Yrotation
							JOINT lwrist
							{
								OFFSET 0 -18.964 0
								CHANNELS 6 Xposition Yposition Zposition Zrotation Xrotation Yrotation
								JOINT lhand
								{
									OFFSET 0 -9.48199 0
									CHANNELS 6 Xposition Yposition Zposition Zrotation Xrotation Yrotation
									JOINT lfingers
									{
										OFFSET 0 -3.17138 0
										CHANNELS 6 Xposition Yposition Zposition Zrotation Xrotation Yrotation
										End Site
										{
											OFFSET 0 -2.55685 0
										}
									}
								}
								JOINT lthumb
								{
									OFFSET 0 -9.48199 0
									CHANNELS 6 Xposition Yposition Zposition Zrotation Xrotation Yrotation
									End Site
									{
										OFFSET 0 -3.67114 0
									}
								}
							}
						}
					}
				}
				JOINT rclavicle
				{
					OFFSET 0.0883157 12.5016 0.82912
					CHANNELS 6 Xposition Yposition Zposition Zrotation Xrotation Yrotation
					JOINT rhumerus
					{
						OFFSET -20.61 4.45 1.44
						CHANNELS 6 Xposition Yposition Zposition Zrotation Xrotation Yrotation
						JOINT rradius
						{
							OFFSET 0 -29.5102 0
							CHANNELS 6 Xposition Yposition Zposition Zrotation Xrotation Yrotation
							JOINT rwrist
							{
								OFFSET 0 -19.2342 0
								CHANNELS 6 Xposition Yposition Zposition Zrotation Xrotation Yrotation
								JOINT rhand
								{
									OFFSET 0 -9.61712 0
									CHANNELS 6 Xposition Yposition Zposition Zrotation Xrotation Yrotation
									JOINT rfingers
									{
										OFFSET 0 -3.29215 0
										CHANNELS 6 Xposition Yposition Zposition Zrotation Xrotation Yrotation
										End Site
										{
											OFFSET 0 -2.557 0
										}
									}
								}
								JOINT rthumb
								{
									OFFSET 0 -9.61712 0
									CHANNELS 6 Xposition Yposition Zposition Zrotation Xrotation Yrotation
									End Site
									{
										OFFSET 0 -3.671 0
									}
								}
							}
						}
					}
				}
			}
		}
	}
	JOINT rfemur
	{
		OFFSET -8.46272 -9.62775 4.76248
		CHANNELS 6 Xposition Yposition Zposition Zrotation Xrotation Yrotation
		JOINT rtibia
		{
			OFFSET 1.00552e-005 -38.0331 0
			CHANNELS 6 Xposition Yposition Zposition Zrotation Xrotation Yrotation
			JOINT rfoot
			{
				OFFSET 1.14428e-005 -43.2815 0
				CHANNELS 6 Xposition Yposition Zposition Zrotation Xrotation Yrotation
				JOINT rtoes
				{
					OFFSET 0 -14.1868 -3.08763
					CHANNELS 6 Xposition Yposition Zposition Zrotation Xrotation Yrotation
					End Site
					{
						OFFSET 0 -7.27332 0
					}
				}
			}
		}
	}
	JOINT lfemur
	{
		OFFSET 9.10607 -9.62778 4.76249
		CHANNELS 6 Xposition Yposition Zposition Zrotation Xrotation Yrotation
		JOINT ltibia
		{
			OFFSET -1.01399e-005 -38.3535 0
			CHANNELS 6 Xposition Yposition Zposition Zrotation Xrotation Yrotation
			JOINT lfoot
			{
				OFFSET -1.12937e-005 -42.7176 0
				CHANNELS 6 Xposition Yposition Zposition Zrotation Xrotation Yrotation
				JOINT ltoes
				{
					OFFSET 0 -13.9965 -2.83857
					CHANNELS 6 Xposition Yposition Zposition Zrotation Xrotation Yrotation
					End Site
					{
						OFFSET 0 -7.16348 0
					}
				}
			}
		}
	}
}
MOTION
Frames: 6
Frame Time: 0.00833333
2.03567	95.1409	37.8828	-5.31243	8.0281	-11.5614	0 0 0 8.18146	-1.16429	6.04703	-0.214371 12.3768 -1.12219 3.03593	-3.31657	8.15261	-0.00137213 12.3873 0.296195 -1.66793	-2.0937	3.90937	0.0883157 12.5016 0.82912 -4.15985	-9.02138	1.86186	-1 10.1794 0.943522 -0.335734	7.77121	3.07897	0.667525 10.2797 -1.57149 0.896674	4.01149	1.37381	0.0883157 12.5016 0.82912 -15	0	-0	20.61 4.45006 1.43784 5.44033	31.8711	-144.501	0 -30.3438 0 -0	12.6501	-0	0 -18.964 0 1.23071e-014	-4.60929e-015	-131.064	0 -9.48199 0 1.22245	4.37968	-2.58917e-014	0 -3.17138 0 -0	7.12502	-0	0 -9.48199 0 25	15	-1.36605e-015	0.0883157 12.5016 0.82912 15	0	-0	-20.61 4.45 1.44 -26.5322	-22.9279	177.614	0 -29.5102 0 -0	48.6537	-0	0 -19.2342 0 9.99539e-017	-1.18013e-015	99.6825	0 -9.61712 0 1.22	4.38	-0	0 -3.29215 0 -0	7.12502	-0	0 -9.61712 0 -104.914	15	-7.97034e-015	-8.46272 -9.62775 4.76248 7.85293	9.15401	3.22205	1.00552e-005 -38.0331 0 -0	15.7662	-0	1.14428e-005 -43.2815 0 -3.64067e-015	-63.6703	-4.36617e-015	0 -14.1868 -3.08763 -0	-11.3229	-0	9.10607 -9.62778 4.76249 11.5891	-40.3597	-0.876349	-1.01399e-005 -38.3535 0 -0	14.9365	-0	-1.12937e-005 -42.7176 0 3.82649e-015	-79.0678	3.93781e-015	0 -13.9965 -2.83857 -0	-38.0425	-0
2.09705	94.9668	39.4036	-5.23295	8.0338	-11.7464	0 0 0 7.93645	-1.28903	6.12251	-0.214371 12.3768 -1.12219 2.95923	-3.33866	8.24088	-0.00137213 12.3873 0.296195 -1.60203	-2.06009	3.95969	0.0883157 12.5016 0.82912 -4.11595	-9.09286	1.83572	-1 10.1794 0.943522 -0.187713	7.79832	3.02665	0.667525 10.2797 -1.57149 0.932201	4.00755	1.35634	0.0883157 12.5016 0.82912 -15	0	-0	20.61 4.45006 1.43784 5.50284	32.528	-142.686	0 -30.3438 0 -0	12.4169	-0	0 -18.964 0 1.2211e-014	-4.71735e-015	-132.245	0 -9.48199 0 1.22245	4.37968	-2.58917e-014	0 -3.17138 0 -0	7.12502	-0	0 -9.48199 0 25	15	-1.36605e-015	0.0883157 12.5016 0.82912 15	0	-0	-20.61 4.45 1.44 -26.8508	-23.1803	177.768	0 -29.5102 0 -0	49.2611	-0	0 -19.2342 0 9.56407e-017	-1.15456e-015	99.4708	0 -9.61712 0 1.22	4.38	-0	0 -3.29215 0 -0	7.12502	-0	0 -9.61712 0 -104.914	15	-7.97034e-015	-8.46272 -9.62775 4.76248 7.5137	10.0629	3.7222	1.00552e-005 -38.0331 0 -0	15.7654	-0	1.14428e-005 -43.2815 0 -3.47055e-015	-62.6444	-4.21437e-015	0 -14.1868 -3.08763 -0	-10.9614	-0	9.10607 -9.62778 4.76249 11.5624	-40.6484	-0.30281	-1.01399e-005 -38.3535 0 -0	15.6665	-0	-1.12937e-005 -42.7176 0 3.52211e-015	-78.159	3.63941e-015	0 -13.9965 -2.83857 -0	-37.7143	-0
2.14267	94.8029	40.9345	-5.12162	8.03178	-11.8564	0 0 0 7.63311	-1.41617	6.17146	-0.214371 12.3768 -1.12219 2.86244	-3.36402	8.29519	-0.00137213 12.3873 0.296195 -1.52425	-2.03608	3.99394	0.0883157 12.5016 0.82912 -4.02863	-9.22807	1.79284	-1 10.1794 0.943522 -0.060157	7.89769	2.9505	0.667525 10.2797 -1.57149 0.953298	4.03785	1.32637	0.0883157 12.5016 0.82912 -15	0	-0	20.61 4.45006 1.43784 5.56373	33.0222	-140.703	0 -30.3438 0 -0	12.1049	-0	0 -18.964 0 1.20857e-014	-4.85179e-015	-133.746	0 -9.48199 0 1.22245	4.37968	-2.58917e-014	0 -3.17138 0 -0	7.12502	-0	0 -9.48199 0 25	15	-1.36605e-015	0.0883157 12.5016 0.82912 15	0	-0	-20.61 4.45 1.44 -27.113	-23.2703	177.852	0 -29.5102 0 -0	49.9	-0	0 -19.2342 0 9.25307e-017	-1.13576e-015	99.3152	0 -9.61712 0 1.22	4.38	-0	0 -3.29215 0 -0	7.12502	-0	0 -9.61712 0 -104.914	15	-7.97034e-015	-8.46272 -9.62775 4.76248 7.16157	10.8211	4.23079	1.00552e-005 -38.0331 0 -0	16.0668	-0	1.14428e-005 -43.2815 0 -3.29971e-015	-61.5374	-4.06339e-015	0 -14.1868 -3.08763 -0	-10.7097	-0	9.10607 -9.62778 4.76249 11.4407	-40.9745	0.377408	-1.01399e-005 -38.3535 0 -0	16.7845	-0	-1.12937e-005 -42.7176 0 3.19191e-015	-76.9885	3.31692e-015	0 -13.9965 -2.83857 -0	-37.0174	-0
2.16694	94.6508	42.4787	-4.9716	8.02597	-11.8945	0 0 0 7.26855	-1.54644	6.19392	-0.214371 12.3768 -1.12219 2.74316	-3.39306	8.31548	-0.00137213 12.3873 0.296195 -1.43549	-2.02158	4.01215	0.0883157 12.5016 0.82912 -3.89567	-9.42996	1.73279	-1 10.1794 0.943522 0.0425152	8.0714	2.8496	0.667525 10.2797 -1.57149 0.957917	4.10481	1.28347	0.0883157 12.5016 0.82912 -15	0	-0	20.61 4.45006 1.43784 5.63683	33.3423	-138.647	0 -30.3438 0 -0	11.7221	-0	0 -18.964 0 1.19375e-014	-5.00201e-015	-135.469	0 -9.48199 0 1.22245	4.37968	-2.58917e-014	0 -3.17138 0 -0	7.12502	-0	0 -9.48199 0 25	15	-1.36605e-015	0.0883157 12.5016 0.82912 15	0	-0	-20.61 4.45 1.44 -27.3115	-23.1931	177.875	0 -29.5102 0 -0	50.5727	-0	0 -19.2342 0 9.04628e-017	-1.12308e-015	99.2103	0 -9.61712 0 1.22	4.38	-0	0 -3.29215 0 -0	7.12502	-0	0 -9.61712 0 -104.914	15	-7.97034e-015	-8.46272 -9.62775 4.76248 6.79717	11.4005	4.73829	1.00552e-005 -38.0331 0 -0	16.6974	-0	1.14428e-005 -43.2815 0 -3.12461e-015	-60.3146	-3.91035e-015	0 -14.1868 -3.08763 -0	-10.593	-0	9.10607 -9.62778 4.76249 11.2191	-41.336	1.11289	-1.01399e-005 -38.3535 0 -0	18.2437	-0	-1.12937e-005 -42.7176 0 2.8684e-015	-75.5985	3.00261e-015	0 -13.9965 -2.83857 -0	-35.9527	-0
2.17707	94.5038	44.0393	-4.77719	8.01931	-11.8664	0 0 0 6.84217	-1.67872	6.19098	-0.214371 12.3768 -1.12219 2.59962	-3.42553	8.30309	-0.00137213 12.3873 0.296195 -1.33742	-2.01651	4.015	0.0883157 12.5016 0.82912 -3.71686	-9.69941	1.65558	-1 10.1794 0.943522 0.116713	8.31864	2.72387	0.667525 10.2797 -1.57149 0.944485	4.20865	1.22761	0.0883157 12.5016 0.82912 -15	0	-0	20.61 4.45006 1.43784 5.74139	33.4884	-136.628	0 -30.3438 0 -0	11.2792	-0	0 -18.964 0 1.17749e-014	-5.15693e-015	-137.303	0 -9.48199 0 1.22245	4.37968	-2.58917e-014	0 -3.17138 0 -0	7.12502	-0	0 -9.48199 0 25	15	-1.36605e-015	0.0883157 12.5016 0.82912 15	0	-0	-20.61 4.45 1.44 -27.4405	-22.9467	177.843	0 -29.5102 0 -0	51.2802	-0	0 -19.2342 0 8.9273e-017	-1.11572e-015	99.1494	0 -9.61712 0 1.22	4.38	-0	0 -3.29215 0 -0	7.12502	-0	0 -9.61712 0 -104.914	15	-7.97034e-015	-8.46272 -9.62775 4.76248 6.42192	11.7775	5.23404	1.00552e-005 -38.0331 0 -0	17.6762	-0	1.14428e-005 -43.2815 0 -2.94331e-015	-58.944	-3.75391e-015	0 -14.1868 -3.08763 -0	-10.6247	-0	9.10607 -9.62778 4.76249 10.8956	-41.7279	1.85256	-1.01399e-005 -38.3535 0 -0	19.989	-0	-1.12937e-005 -42.7176 0 2.57325e-015	-74.0507	2.71772e-015	0 -13.9965 -2.83857 -0	-34.5637	-0
2.17982	94.3631	45.6049	-4.53463	8.01318	-11.7805	0 0 0 6.35625	-1.80962	6.1648	-0.214371 12.3768 -1.12219 2.43094	-3.46048	8.26077	-0.00137213 12.3873 0.296195 -1.23254	-2.02093	4.00382	0.0883157 12.5016 0.82912 -3.49473	-10.0338	1.56206	-1 10.1794 0.943522 0.160567	8.63426	2.57449	0.667525 10.2797 -1.57149 0.912398	4.34694	1.15941	0.0883157 12.5016 0.82912 -15	0	-0	20.61 4.45006 1.43784 5.89731	33.4729	-134.75	0 -30.3438 0 -0	10.7895	-0	0 -18.964 0 1.16078e-014	-5.30625e-015	-139.133	0 -9.48199 0 1.22245	4.37968	-2.58917e-014	0 -3.17138 0 -0	7.12502	-0	0 -9.48199 0 25	15	-1.36605e-015	0.0883157 12.5016 0.82912 15	0	-0	-20.61 4.45 1.44 -27.4957	-22.5332	177.767	0 -29.5102 0 -0	52.0208	-0	0 -19.2342 0 8.8783e-017	-1.11268e-015	99.1242	0 -9.61712 0 1.22	4.38	-0	0 -3.29215 0 -0	7.12502	-0	0 -9.61712 0 -104.914	15	-7.97034e-015	-8.46272 -9.62775 4.76248 6.03796	11.9348	5.70672	1.00552e-005 -38.0331 0 -0	19.0132	-0	1.14428e-005 -43.2815 0 -2.75579e-015	-57.4019	-3.59458e-015	0 -14.1868 -3.08763 -0	-10.8077	-0	9.10607 -9.62778 4.76249 10.4713	-42.1412	2.55026	-1.01399e-005 -38.3535 0 -0	21.9592	-0	-1.12937e-005 -42.7176 0 2.31737e-015	-72.4212	2.47269e-015	0 -13.9965 -2.83857 -0	-32.9332	-0
